<?xml version="1.0" encoding="utf-8"?>
<!-- Generator: Adobe Illustrator 23.0.0, SVG Export Plug-In . SVG Version: 6.00 Build 0)  -->
<svg version="1.1" xmlns="http://www.w3.org/2000/svg" xmlns:xlink="http://www.w3.org/1999/xlink" x="0px" y="0px"
	 viewBox="0 0 512 512" style="enable-background:new 0 0 512 512;" xml:space="preserve">
<style type="text/css">
	.st0{fill:#395D63;}
	.st1{fill:#FFFFFF;}
	.st2{fill:#7ED4E8;}
</style>
<g id="Capa_2">
	<circle class="st0" cx="256" cy="256" r="223"/>
</g>
<g id="Layer_1">
	<path class="st1" d="M502,119.4c-23.5,28.4-50.4,53.8-80,75.5c-30.3,22.2-63.5,40.6-98.8,54.6l-52.6,18.8L360.7,151l130-47.6
		C500.4,99.8,508.6,111.4,502,119.4z"/>
	<path class="st2" d="M422,194.8c-30.3,22.2-63.5,40.6-98.8,54.6l-52.6,18.8L360.7,151C360.7,151,353.5,203.5,422,194.8z"/>
	<path class="st1" d="M360.7,151C323,207.9,279.8,260.8,232,309c-17.6,17.7-35.8,34.8-54.6,51.2c-32.4,28.3-66.6,54.6-102.5,78.7
		l-6.7,4.5c-8.4-8.3-15.8-17.2-22.4-26.5l27.8-22.1c-11.9-15.1-31.5-20.5-48.8-15.1C-8.1,304.1,6.4,212.8,68.2,151
		c17.1-17.1,35.5-34.1,55.1-48.2c0,0,0,0,0,0c29.4-21.2,61.3-35.7,95-34.1C267.9,71,322.8,113.1,360.7,151z"/>
	<path class="st2" d="M177.4,360.2c-32.4,28.3-66.6,54.6-102.5,78.7l-6.7,4.5c-8.4-8.3-15.8-17.2-22.4-26.5l27.8-22.1
		c-11.9-15.1-31.5-20.5-48.8-15.1C-8.1,304.1,6.4,212.8,68.2,151c17.1-17.1,35.5-34.1,55.1-48.2C121.4,105.5,16.5,256.5,177.4,360.2
		z"/>
	<path d="M508.7,102.6c-4.7-6.6-13-9.2-20.6-6.4l-125.5,45.9c-31.3-30.7-88.6-78.5-143.9-81.1c-27.3-1.3-54.9,7-84.4,25.2
		c-28.5,17.6-54.4,42.3-71.5,59.3c-31,31-51.6,70.2-59.4,113.2c-7.6,42-2.7,84.9,14.3,123.9c1.5,3.6,5.5,5.4,9.2,4.2
		c12.3-3.8,25.6-1,35.3,7.1L41,410.9c-3.2,2.5-3.8,7.1-1.5,10.4c7,9.8,14.8,19,23.3,27.5c1.5,1.5,3.4,2.2,5.4,2.2
		c1.5,0,3-0.4,4.3-1.3l6.7-4.5c56.8-38.3,110-82.3,158.2-130.9c12.8-12.8,25.2-26.1,37.3-39.6l51.1-18.2c0.1,0,0.2-0.1,0.2-0.1
		c70.6-28,133.5-73.7,181.9-132.3C513.1,118,513.4,109.3,508.7,102.6z M155.5,368.9c-6.9-7-13.6-14-19.7-21
		c-2.8-3.2-7.6-3.5-10.7-0.7c-3.2,2.8-3.5,7.6-0.7,10.7c6,6.9,12.5,13.8,19.3,20.6c-23.5,19-47.8,37-73.1,54l-1.4,0.9
		c-4.6-4.9-8.9-10-13-15.3l22.1-17.5c1.6-1.3,2.6-3.1,2.8-5.1c0.2-2-0.3-4-1.6-5.6c-12-15.1-31.5-22.4-50.3-19.3
		c-13.8-34.7-17.5-72.3-10.9-109.3c5.3-29.3,16.9-56.6,34.1-80.4c-0.7,6.1-1.2,12.9-1,20.5c1.2,54.9,31.8,105.2,57.3,137.7
		c1.5,1.9,3.7,2.9,6,2.9c1.6,0,3.3-0.5,4.7-1.6c3.3-2.6,3.9-7.4,1.3-10.7c-23.8-30.4-52.5-77.2-54-127.5c-0.9-29.7,8.2-47,8.4-47.3
		c0.1-0.2,0.2-0.4,0.3-0.6c0.2-0.1,0.4-0.2,0.6-0.3c0.1,0,9.1-4.9,25.2-7.2c14.9-2.2,39.1-2.6,69.9,7.8c0.8,0.3,1.6,0.4,2.4,0.4
		c3.2,0,6.1-2,7.2-5.2c1.3-4-0.8-8.3-4.8-9.7c-32.2-10.9-58.2-11.2-76.6-8.6c12.8-11.4,27.5-23.1,42.8-32.5
		c26.8-16.6,51.6-24.1,75.7-23C269,78.7,325.1,127,350.9,152c-16.3,24.2-33.5,47.6-51.5,70.2c-31.2-30.7-62.7-54.1-93.7-69.5
		c-3.8-1.9-8.3-0.3-10.2,3.4c-1.9,3.8-0.3,8.3,3.4,10.2c29.9,14.9,60.4,37.7,90.8,67.8C249.2,283.1,204.4,328.2,155.5,368.9z
		 M496.1,114.5c-46.7,56.5-107.5,100.7-175.6,127.8l-25.6,9.1c25.3-30,48.9-61.5,70.7-94.1l127.7-46.8c1.5-0.5,2.4,0.2,2.9,0.9
		C496.8,112.2,497.2,113.3,496.1,114.5z"/>
</g>
</svg>
